<mxfile host="app.diagrams.net" agent="Mozilla/5.0 (Windows NT 10.0; Win64; x64) AppleWebKit/537.36 (KHTML, like Gecko) Chrome/133.0.0.0 Safari/537.36" version="28.2.5">
  <diagram name="Página-1" id="JxsheiU9i4KE1aOQSRyR">
    <mxGraphModel dx="872" dy="1600" grid="1" gridSize="10" guides="1" tooltips="1" connect="1" arrows="1" fold="1" page="1" pageScale="1" pageWidth="827" pageHeight="1169" math="0" shadow="0">
      <root>
        <mxCell id="0" />
        <mxCell id="1" parent="0" />
        <mxCell id="VABJSeFgyJ5yQ4H0qmRA-13" style="edgeStyle=orthogonalEdgeStyle;rounded=0;orthogonalLoop=1;jettySize=auto;html=1;exitX=0.5;exitY=1;exitDx=0;exitDy=0;entryX=0.5;entryY=0;entryDx=0;entryDy=0;" edge="1" parent="1" source="VABJSeFgyJ5yQ4H0qmRA-7" target="VABJSeFgyJ5yQ4H0qmRA-9">
          <mxGeometry relative="1" as="geometry" />
        </mxCell>
        <mxCell id="VABJSeFgyJ5yQ4H0qmRA-7" value="&lt;h2&gt;&lt;font style=&quot;vertical-align: inherit;&quot; dir=&quot;auto&quot;&gt;&lt;font style=&quot;vertical-align: inherit;&quot; dir=&quot;auto&quot;&gt;&lt;font style=&quot;vertical-align: inherit;&quot; dir=&quot;auto&quot;&gt;&lt;font style=&quot;vertical-align: inherit;&quot; dir=&quot;auto&quot;&gt;&lt;font style=&quot;vertical-align: inherit;&quot; dir=&quot;auto&quot;&gt;&lt;font style=&quot;vertical-align: inherit;&quot; dir=&quot;auto&quot;&gt;&lt;font style=&quot;vertical-align: inherit;&quot; dir=&quot;auto&quot;&gt;&lt;font style=&quot;vertical-align: inherit;&quot; dir=&quot;auto&quot;&gt;Início&lt;/font&gt;&lt;/font&gt;&lt;/font&gt;&lt;/font&gt;&lt;/font&gt;&lt;/font&gt;&lt;/font&gt;&lt;/font&gt;&lt;/h2&gt;" style="rounded=0;whiteSpace=wrap;html=1;" vertex="1" parent="1">
          <mxGeometry x="350" width="110" height="30" as="geometry" />
        </mxCell>
        <mxCell id="VABJSeFgyJ5yQ4H0qmRA-21" style="edgeStyle=orthogonalEdgeStyle;rounded=0;orthogonalLoop=1;jettySize=auto;html=1;exitX=0.5;exitY=1;exitDx=0;exitDy=0;entryX=0.5;entryY=0;entryDx=0;entryDy=0;" edge="1" parent="1" source="VABJSeFgyJ5yQ4H0qmRA-9" target="VABJSeFgyJ5yQ4H0qmRA-15">
          <mxGeometry relative="1" as="geometry" />
        </mxCell>
        <mxCell id="VABJSeFgyJ5yQ4H0qmRA-9" value="&lt;h2&gt;Tela de Login&lt;/h2&gt;" style="rounded=0;whiteSpace=wrap;html=1;" vertex="1" parent="1">
          <mxGeometry x="315" y="70" width="180" height="40" as="geometry" />
        </mxCell>
        <mxCell id="VABJSeFgyJ5yQ4H0qmRA-15" value="&lt;h2&gt;&lt;font face=&quot;Times New Roman&quot;&gt;Login/Cadastro&lt;/font&gt;&lt;/h2&gt;" style="rounded=0;whiteSpace=wrap;html=1;" vertex="1" parent="1">
          <mxGeometry x="310" y="150" width="190" height="30" as="geometry" />
        </mxCell>
        <mxCell id="VABJSeFgyJ5yQ4H0qmRA-38" style="edgeStyle=orthogonalEdgeStyle;rounded=0;orthogonalLoop=1;jettySize=auto;html=1;exitX=0.5;exitY=1;exitDx=0;exitDy=0;entryX=0.5;entryY=0;entryDx=0;entryDy=0;" edge="1" parent="1" source="VABJSeFgyJ5yQ4H0qmRA-22" target="VABJSeFgyJ5yQ4H0qmRA-30">
          <mxGeometry relative="1" as="geometry" />
        </mxCell>
        <mxCell id="VABJSeFgyJ5yQ4H0qmRA-40" style="edgeStyle=orthogonalEdgeStyle;rounded=0;orthogonalLoop=1;jettySize=auto;html=1;exitX=0;exitY=0.5;exitDx=0;exitDy=0;entryX=0.5;entryY=0;entryDx=0;entryDy=0;" edge="1" parent="1" source="VABJSeFgyJ5yQ4H0qmRA-22" target="VABJSeFgyJ5yQ4H0qmRA-29">
          <mxGeometry relative="1" as="geometry">
            <mxPoint x="110" y="250" as="targetPoint" />
          </mxGeometry>
        </mxCell>
        <mxCell id="VABJSeFgyJ5yQ4H0qmRA-49" style="edgeStyle=orthogonalEdgeStyle;rounded=0;orthogonalLoop=1;jettySize=auto;html=1;exitX=1;exitY=0.5;exitDx=0;exitDy=0;entryX=0.5;entryY=0;entryDx=0;entryDy=0;" edge="1" parent="1" source="VABJSeFgyJ5yQ4H0qmRA-22" target="VABJSeFgyJ5yQ4H0qmRA-31">
          <mxGeometry relative="1" as="geometry">
            <mxPoint x="720" y="250" as="targetPoint" />
          </mxGeometry>
        </mxCell>
        <mxCell id="VABJSeFgyJ5yQ4H0qmRA-22" value="&lt;h2&gt;&lt;font face=&quot;Times New Roman&quot;&gt;Menu Principal&lt;/font&gt;&lt;/h2&gt;" style="rounded=0;whiteSpace=wrap;html=1;" vertex="1" parent="1">
          <mxGeometry x="304" y="230" width="220" height="40" as="geometry" />
        </mxCell>
        <mxCell id="VABJSeFgyJ5yQ4H0qmRA-42" style="edgeStyle=orthogonalEdgeStyle;rounded=0;orthogonalLoop=1;jettySize=auto;html=1;exitX=0.5;exitY=1;exitDx=0;exitDy=0;entryX=0.5;entryY=0;entryDx=0;entryDy=0;" edge="1" parent="1" source="VABJSeFgyJ5yQ4H0qmRA-29" target="VABJSeFgyJ5yQ4H0qmRA-41">
          <mxGeometry relative="1" as="geometry" />
        </mxCell>
        <mxCell id="VABJSeFgyJ5yQ4H0qmRA-29" value="&lt;h2&gt;&lt;font face=&quot;Times New Roman&quot;&gt;Pontos de Atendimento&lt;/font&gt;&lt;/h2&gt;" style="rounded=1;whiteSpace=wrap;html=1;" vertex="1" parent="1">
          <mxGeometry x="10" y="350" width="200" height="50" as="geometry" />
        </mxCell>
        <mxCell id="VABJSeFgyJ5yQ4H0qmRA-48" style="edgeStyle=orthogonalEdgeStyle;rounded=0;orthogonalLoop=1;jettySize=auto;html=1;exitX=0.5;exitY=1;exitDx=0;exitDy=0;entryX=0.5;entryY=0;entryDx=0;entryDy=0;" edge="1" parent="1" source="VABJSeFgyJ5yQ4H0qmRA-30" target="VABJSeFgyJ5yQ4H0qmRA-43">
          <mxGeometry relative="1" as="geometry" />
        </mxCell>
        <mxCell id="VABJSeFgyJ5yQ4H0qmRA-30" value="&lt;h2&gt;Rede de Apoio à Vida&lt;/h2&gt;" style="rounded=1;whiteSpace=wrap;html=1;" vertex="1" parent="1">
          <mxGeometry x="304" y="350" width="220" height="50" as="geometry" />
        </mxCell>
        <mxCell id="VABJSeFgyJ5yQ4H0qmRA-47" style="edgeStyle=orthogonalEdgeStyle;rounded=0;orthogonalLoop=1;jettySize=auto;html=1;exitX=0.5;exitY=1;exitDx=0;exitDy=0;entryX=0.5;entryY=0;entryDx=0;entryDy=0;" edge="1" parent="1" source="VABJSeFgyJ5yQ4H0qmRA-31" target="VABJSeFgyJ5yQ4H0qmRA-44">
          <mxGeometry relative="1" as="geometry" />
        </mxCell>
        <mxCell id="VABJSeFgyJ5yQ4H0qmRA-31" value="&lt;h2&gt;&lt;font face=&quot;Times New Roman&quot;&gt;Assistente Virtual&lt;/font&gt;&lt;/h2&gt;" style="rounded=1;whiteSpace=wrap;html=1;" vertex="1" parent="1">
          <mxGeometry x="615" y="350" width="200" height="50" as="geometry" />
        </mxCell>
        <mxCell id="VABJSeFgyJ5yQ4H0qmRA-33" style="edgeStyle=orthogonalEdgeStyle;rounded=0;orthogonalLoop=1;jettySize=auto;html=1;exitX=0.5;exitY=1;exitDx=0;exitDy=0;entryX=0.459;entryY=-0.025;entryDx=0;entryDy=0;entryPerimeter=0;" edge="1" parent="1" source="VABJSeFgyJ5yQ4H0qmRA-15" target="VABJSeFgyJ5yQ4H0qmRA-22">
          <mxGeometry relative="1" as="geometry" />
        </mxCell>
        <mxCell id="VABJSeFgyJ5yQ4H0qmRA-41" value="Ativar GPS?" style="shape=rhombus;perimeter=rhombusPerimeter;whiteSpace=wrap;html=1;align=center;" vertex="1" parent="1">
          <mxGeometry x="35" y="450" width="150" height="80" as="geometry" />
        </mxCell>
        <mxCell id="VABJSeFgyJ5yQ4H0qmRA-57" style="edgeStyle=orthogonalEdgeStyle;rounded=0;orthogonalLoop=1;jettySize=auto;html=1;exitX=0.5;exitY=1;exitDx=0;exitDy=0;entryX=0.5;entryY=0;entryDx=0;entryDy=0;" edge="1" parent="1" source="VABJSeFgyJ5yQ4H0qmRA-43" target="VABJSeFgyJ5yQ4H0qmRA-56">
          <mxGeometry relative="1" as="geometry" />
        </mxCell>
        <mxCell id="VABJSeFgyJ5yQ4H0qmRA-43" value="Mensagem + Contato" style="shape=rhombus;perimeter=rhombusPerimeter;whiteSpace=wrap;html=1;align=center;" vertex="1" parent="1">
          <mxGeometry x="339" y="440" width="150" height="90" as="geometry" />
        </mxCell>
        <mxCell id="VABJSeFgyJ5yQ4H0qmRA-44" value="Chat IA" style="shape=rhombus;perimeter=rhombusPerimeter;whiteSpace=wrap;html=1;align=center;" vertex="1" parent="1">
          <mxGeometry x="640" y="440" width="150" height="90" as="geometry" />
        </mxCell>
        <mxCell id="VABJSeFgyJ5yQ4H0qmRA-50" value="" style="endArrow=none;dashed=1;html=1;rounded=0;entryX=0.5;entryY=1;entryDx=0;entryDy=0;exitX=0.5;exitY=0;exitDx=0;exitDy=0;" edge="1" parent="1" source="VABJSeFgyJ5yQ4H0qmRA-52" target="VABJSeFgyJ5yQ4H0qmRA-44">
          <mxGeometry width="50" height="50" relative="1" as="geometry">
            <mxPoint x="715" y="560" as="sourcePoint" />
            <mxPoint x="450" y="580" as="targetPoint" />
          </mxGeometry>
        </mxCell>
        <mxCell id="VABJSeFgyJ5yQ4H0qmRA-55" style="edgeStyle=orthogonalEdgeStyle;rounded=0;orthogonalLoop=1;jettySize=auto;html=1;exitX=0.5;exitY=1;exitDx=0;exitDy=0;entryX=0.5;entryY=0;entryDx=0;entryDy=0;" edge="1" parent="1" source="VABJSeFgyJ5yQ4H0qmRA-52" target="VABJSeFgyJ5yQ4H0qmRA-54">
          <mxGeometry relative="1" as="geometry" />
        </mxCell>
        <mxCell id="VABJSeFgyJ5yQ4H0qmRA-52" value="&lt;h6&gt;&lt;font style=&quot;line-height: 300%;&quot; face=&quot;Courier New&quot;&gt;Encaminhar Humano?&lt;/font&gt;&lt;/h6&gt;" style="text;strokeColor=none;fillColor=none;html=1;fontSize=24;fontStyle=1;verticalAlign=middle;align=center;" vertex="1" parent="1">
          <mxGeometry x="640" y="585" width="150" height="60" as="geometry" />
        </mxCell>
        <mxCell id="VABJSeFgyJ5yQ4H0qmRA-54" value="&lt;h2&gt;&lt;font face=&quot;Times New Roman&quot;&gt;Assistente Humano&lt;/font&gt;&lt;/h2&gt;" style="rounded=1;whiteSpace=wrap;html=1;" vertex="1" parent="1">
          <mxGeometry x="620" y="710" width="190" height="45" as="geometry" />
        </mxCell>
        <mxCell id="VABJSeFgyJ5yQ4H0qmRA-60" style="edgeStyle=orthogonalEdgeStyle;rounded=0;orthogonalLoop=1;jettySize=auto;html=1;exitX=0.5;exitY=1;exitDx=0;exitDy=0;entryX=0.5;entryY=0;entryDx=0;entryDy=0;" edge="1" parent="1" source="VABJSeFgyJ5yQ4H0qmRA-56" target="VABJSeFgyJ5yQ4H0qmRA-59">
          <mxGeometry relative="1" as="geometry" />
        </mxCell>
        <mxCell id="VABJSeFgyJ5yQ4H0qmRA-56" value="&lt;h2&gt;&lt;font face=&quot;Times New Roman&quot;&gt;Chat IA&lt;/font&gt;&lt;/h2&gt;" style="rounded=1;whiteSpace=wrap;html=1;" vertex="1" parent="1">
          <mxGeometry x="319" y="710" width="190" height="45" as="geometry" />
        </mxCell>
        <mxCell id="VABJSeFgyJ5yQ4H0qmRA-63" style="edgeStyle=orthogonalEdgeStyle;rounded=0;orthogonalLoop=1;jettySize=auto;html=1;exitX=0.5;exitY=1;exitDx=0;exitDy=0;entryX=0.5;entryY=0;entryDx=0;entryDy=0;" edge="1" parent="1" source="VABJSeFgyJ5yQ4H0qmRA-59" target="VABJSeFgyJ5yQ4H0qmRA-62">
          <mxGeometry relative="1" as="geometry" />
        </mxCell>
        <mxCell id="VABJSeFgyJ5yQ4H0qmRA-59" value="&lt;h2&gt;&lt;font face=&quot;Times New Roman&quot;&gt;SAC/E-mail&lt;/font&gt;&lt;/h2&gt;" style="rounded=1;whiteSpace=wrap;html=1;" vertex="1" parent="1">
          <mxGeometry x="319" y="850" width="190" height="45" as="geometry" />
        </mxCell>
        <mxCell id="VABJSeFgyJ5yQ4H0qmRA-62" value="&lt;h2&gt;&lt;font face=&quot;Times New Roman&quot;&gt;Fim&lt;/font&gt;&lt;/h2&gt;" style="rounded=1;whiteSpace=wrap;html=1;" vertex="1" parent="1">
          <mxGeometry x="339" y="970" width="150" height="45" as="geometry" />
        </mxCell>
        <mxCell id="VABJSeFgyJ5yQ4H0qmRA-65" value="&lt;h2&gt;&lt;font face=&quot;Times New Roman&quot;&gt;Pontos de Pontos&lt;/font&gt;&lt;/h2&gt;" style="rounded=1;whiteSpace=wrap;html=1;" vertex="1" parent="1">
          <mxGeometry x="15" y="710" width="190" height="45" as="geometry" />
        </mxCell>
        <mxCell id="VABJSeFgyJ5yQ4H0qmRA-68" value="&amp;lt;&amp;lt;extend&amp;gt;&amp;gt;" style="html=1;verticalAlign=bottom;labelBackgroundColor=none;endArrow=open;endFill=0;dashed=1;rounded=0;" edge="1" parent="1">
          <mxGeometry width="160" relative="1" as="geometry">
            <mxPoint x="540" y="615" as="sourcePoint" />
            <mxPoint x="620" y="615" as="targetPoint" />
          </mxGeometry>
        </mxCell>
        <mxCell id="VABJSeFgyJ5yQ4H0qmRA-73" style="edgeStyle=orthogonalEdgeStyle;rounded=0;orthogonalLoop=1;jettySize=auto;html=1;exitX=0.5;exitY=1;exitDx=0;exitDy=0;entryX=0.5;entryY=0;entryDx=0;entryDy=0;" edge="1" parent="1" source="VABJSeFgyJ5yQ4H0qmRA-69" target="VABJSeFgyJ5yQ4H0qmRA-65">
          <mxGeometry relative="1" as="geometry" />
        </mxCell>
        <mxCell id="VABJSeFgyJ5yQ4H0qmRA-69" value="&lt;h6&gt;&lt;font face=&quot;Courier New&quot;&gt;Buscar por CEP&lt;/font&gt;&lt;/h6&gt;" style="text;strokeColor=none;fillColor=none;html=1;fontSize=24;fontStyle=1;verticalAlign=middle;align=center;" vertex="1" parent="1">
          <mxGeometry x="35" y="585" width="150" height="60" as="geometry" />
        </mxCell>
        <mxCell id="VABJSeFgyJ5yQ4H0qmRA-70" value="" style="endArrow=none;dashed=1;html=1;rounded=0;entryX=0.5;entryY=1;entryDx=0;entryDy=0;exitX=0.5;exitY=0;exitDx=0;exitDy=0;" edge="1" parent="1" source="VABJSeFgyJ5yQ4H0qmRA-69" target="VABJSeFgyJ5yQ4H0qmRA-41">
          <mxGeometry width="50" height="50" relative="1" as="geometry">
            <mxPoint x="725" y="595" as="sourcePoint" />
            <mxPoint x="725" y="540" as="targetPoint" />
          </mxGeometry>
        </mxCell>
        <mxCell id="VABJSeFgyJ5yQ4H0qmRA-72" value="&amp;lt;&amp;lt;extend&amp;gt;&amp;gt;" style="edgeStyle=none;html=1;startArrow=open;endArrow=none;startSize=12;verticalAlign=bottom;dashed=1;labelBackgroundColor=none;rounded=0;" edge="1" parent="1">
          <mxGeometry y="10" width="160" relative="1" as="geometry">
            <mxPoint x="200" y="620" as="sourcePoint" />
            <mxPoint x="300" y="620" as="targetPoint" />
            <mxPoint as="offset" />
          </mxGeometry>
        </mxCell>
      </root>
    </mxGraphModel>
  </diagram>
</mxfile>
